<svg xmlns="http://www.w3.org/2000/svg" height="20" viewBox="0 0 48 48" width="20">
  <path d="M23.49 12.28c0-.73-.06-1.41-.17-2.07H12v4.06h6.14c-.26 1.47-1.02 2.71-2.14 3.33v2.76h3.44c2.02-1.86 3.17-4.62 3.17-8.08z" fill="#4285F4"/>
  <path d="M12 6.21c1.14 0 2.12.39 2.91 1.04l2.16-2.16C15.73 3.08 14.1 2 12 2 8.29 2 5.16 4.17 4.27 7.4l-3.44 2.71C2.82 7.72 7.12 6.21 12 6.21z" fill="#34A853"/>
  <path d="M4.27 7.4c-.04-.13-.07-.26-.07-.4s.03-.27.07-.4L.84 4.49C-.23 6.52-.23 8.48.84 10.51l3.43-2.71z" fill="#FBBC05"/>
  <path d="M12 2c-1.31 0-2.54.47-3.47 1.3l-2.16-2.16C8.29 0.84 10.14 0 12 0c4.13 0 7.57 2.7 8.88 6.57L18.6 6.3C17.67 4.49 15.47 2 12 2z" fill="#EA4335"/>
</svg>
